<?xml version="1.0" encoding="UTF-8" standalone="no"?>
<svg width="147px" height="72px" viewBox="0 0 147 72" version="1.1" xmlns="http://www.w3.org/2000/svg" xmlns:xlink="http://www.w3.org/1999/xlink" xmlns:sketch="http://www.bohemiancoding.com/sketch/ns">
    <!-- Generator: Sketch 3.2.2 (9983) - http://www.bohemiancoding.com/sketch -->
    <title>logo</title>
    <desc>Created with Sketch.</desc>
    <defs></defs>
    <g id="Page-1" stroke="none" stroke-width="1" fill="none" fill-rule="evenodd" sketch:type="MSPage">
        <g id="Desktop-HD-2" sketch:type="MSArtboardGroup" transform="translate(-32.000000, -27.000000)" fill="#FFFFFF">
            <g id="logo" sketch:type="MSLayerGroup" transform="translate(32.000000, 27.000000)">
                <path d="M58.526527,56.3388329 C60.0501622,55.0733832 60.4812297,54.600922 61.5559189,53.9778596 C71.1811081,48.398286 81.5863243,44.7845242 92.221973,41.7691689 C102.573554,38.8344451 104.387878,31.71021 96.7471892,23.986902 C96.5233784,23.7610002 95.5255,22.8673888 95.1851486,22.4529024 C96.6531622,22.4862213 98.4489459,23.3391837 99.5143649,23.6643756 C115.153973,28.4416314 129.269946,35.8977222 140.874338,47.7025886 C143.864662,50.744599 143.965311,52.2459461 141.562324,54.5642712 C141.371622,52.9942873 140.773027,51.5669081 139.983068,50.2261578 C139.657284,49.6723986 139.232176,49.0173501 138.423014,49.4085134 C137.695959,49.7603604 137.694635,50.5080352 137.838324,51.1517553 C138.264095,53.0495966 139.592392,54.1291271 141.314676,54.8041669 C142.282757,57.2377753 144.571189,58.6644882 145.85777,60.8675301 C147.546284,63.7569402 146.939081,67.0628359 144.557284,68.8867094 C139.384473,72.8476536 142.198662,71.3483056 142.509216,68.599501 C142.976703,64.4573023 138.545514,63.5410341 135.496919,62.3981978 C126.170365,58.9023847 116.527297,56.6080491 106.676311,55.2459748 C91.4849865,53.1448885 76.3545811,52.0233762 61.2903919,55.6051519 L58.526527,56.3388329 Z M116.070405,11.3743869 C112.729135,11.0985068 109.150811,11.12183 107.266297,14.7602478 C105.455284,18.2567272 107.903959,20.4817596 110.712851,23.5584216 C74.3634595,6.88833775 37.7286757,1.73991002 0,17.8115875 C30.6091081,-2.47892197 102.469595,-5.43563617 126.642486,12.569867 L116.070405,11.3743869 Z M11.0495,31.6122526 C15.7541622,28.430303 20.3230811,26.2672436 25.0469459,24.4480348 C42.5545135,17.7049672 60.613,16.1942908 79.0707703,18.9510919 C84.5448649,19.7687364 90.653973,27.6659687 90.3573243,33.2368794 C90.156027,37.0065734 88.350973,37.9974758 85.0222838,36.337531 C62.5584324,25.1370685 41.1050405,21.2494258 17.1327838,29.4498596 C15.9594324,29.6924208 13.4081216,31.0325047 11.0495,31.6122526 Z M83.4522973,40.7496123 C76.1082568,43.0632728 68.7390541,45.3096292 62.5094324,49.7583612 C57.938527,53.0229415 60.3388649,52.2732676 60.6514054,48.7841182 C60.9831486,45.0777301 58.555,43.4024586 55.5905,42.3049359 C49.3297568,39.9872771 43.1888649,39.2635918 36.6665676,40.3617809 C34.5052703,40.7256227 32.046,41.0314897 29.8800676,41.6445564 C47.5412568,34.5456436 65.3732838,34.0285351 83.4522973,40.7496123 Z" id="Fill-1" sketch:type="MSShapeGroup"></path>
            </g>
        </g>
    </g>
</svg>