<svg xmlns="http://www.w3.org/2000/svg" width="147" height="72" viewBox="0 0 147 72" version="1.1"><title>logo</title><desc>Created with Sketch.</desc><g id="Page-1" stroke="none" stroke-width="1" fill="none" fill-rule="evenodd"><g id="Desktop-HD-2" transform="translate(-32.000000, -27.000000)" fill="#FFFFFF"><g id="logo" transform="translate(32.000000, 27.000000)"><path d="M58.53 56.34C60.05 55.07 60.48 54.6 61.56 53.98 71.18 48.4 81.59 44.78 92.22 41.77 102.57 38.83 104.39 31.71 96.75 23.99 96.52 23.76 95.53 22.87 95.19 22.45 96.65 22.49 98.45 23.34 99.51 23.66 115.15 28.44 129.27 35.9 140.87 47.7 143.86 50.74 143.97 52.25 141.56 54.56 141.37 52.99 140.77 51.57 139.98 50.23 139.66 49.67 139.23 49.02 138.42 49.41 137.7 49.76 137.69 50.51 137.84 51.15 138.26 53.05 139.59 54.13 141.31 54.8 142.28 57.24 144.57 58.66 145.86 60.87 147.55 63.76 146.94 67.06 144.56 68.89 139.38 72.85 142.2 71.35 142.51 68.6 142.98 64.46 138.55 63.54 135.5 62.4 126.17 58.9 116.53 56.61 106.68 55.25 91.48 53.14 76.35 52.02 61.29 55.61L58.53 56.34ZM116.07 11.37C112.73 11.1 109.15 11.12 107.27 14.76 105.46 18.26 107.9 20.48 110.71 23.56 74.36 6.89 37.73 1.74 0 17.81 30.61-2.48 102.47-5.44 126.64 12.57L116.07 11.37ZM11.05 31.61C15.75 28.43 20.32 26.27 25.05 24.45 42.55 17.7 60.61 16.19 79.07 18.95 84.54 19.77 90.65 27.67 90.36 33.24 90.16 37.01 88.35 38 85.02 36.34 62.56 25.14 41.11 21.25 17.13 29.45 15.96 29.69 13.41 31.03 11.05 31.61ZM83.45 40.75C76.11 43.06 68.74 45.31 62.51 49.76 57.94 53.02 60.34 52.27 60.65 48.78 60.98 45.08 58.56 43.4 55.59 42.3 49.33 39.99 43.19 39.26 36.67 40.36 34.51 40.73 32.05 41.03 29.88 41.64 47.54 34.55 65.37 34.03 83.45 40.75Z" id="Fill-1"/></g></g></g></svg>
