<?xml version="1.0" standalone="no"?>
<!DOCTYPE svg PUBLIC "-//W3C//DTD SVG 20010904//EN"
 "http://www.w3.org/TR/2001/REC-SVG-20010904/DTD/svg10.dtd">
<svg version="1.0" xmlns="http://www.w3.org/2000/svg"
 width="260.000000pt" height="162.000000pt" viewBox="0 0 260.000000 162.000000"
 preserveAspectRatio="xMidYMid meet">

<g transform="translate(0.000000,162.000000) scale(0.100000,-0.100000)"
fill="#000000" stroke="none">
<path d="M130 1412 c0 -87 -2 -161 -5 -164 -9 -8 -11 -878 -2 -878 4 0 7 -65
7 -145 l0 -145 1175 0 1175 0 0 145 c0 80 3 145 8 145 8 0 6 870 -3 878 -3 3
-5 77 -5 164 l0 158 -1175 0 -1175 0 0 -158z m2340 133 c0 -13 -136 -15 -1165
-15 -1029 0 -1165 2 -1165 15 0 13 136 15 1165 15 1029 0 1165 -2 1165 -15z
m3 -242 c9 -279 9 -717 0 -995 l-6 -218 -1162 0 -1162 0 -6 218 c-4 119 -7
343 -7 497 0 154 3 378 7 498 l6 217 1162 0 1162 0 6 -217z"/>
<path d="M290 1320 l0 -70 70 0 70 0 0 -50 0 -50 -70 0 -70 0 0 -453 0 -452
68 6 c37 4 87 14 112 24 65 25 180 24 250 -4 33 -13 78 -21 113 -21 l57 0 0
450 0 450 -70 0 -70 0 0 50 0 50 70 0 70 0 0 70 0 70 -300 0 -300 0 0 -70z
m588 -2 l-3 -53 -82 -3 -83 -3 0 -69 0 -69 83 -3 82 -3 3 -162 2 -163 -44 0
-45 0 -3 98 -3 97 -197 3 -198 2 0 -100 0 -100 -45 0 -45 0 0 165 0 165 85 0
85 0 0 70 0 70 -85 0 -85 0 0 55 0 55 291 0 290 0 -3 -52z m-418 -123 c0 -30
-4 -55 -10 -55 -5 0 -10 25 -10 55 0 30 5 55 10 55 6 0 10 -25 10 -55z m280 6
c0 -28 -4 -53 -10 -56 -6 -4 -10 15 -10 49 0 31 5 56 10 56 6 0 10 -22 10 -49z
m-343 -68 c-20 -2 -52 -2 -70 0 -17 2 0 4 38 4 39 0 53 -2 32 -4z m446 0 c-18
-2 -48 -2 -65 0 -18 2 -4 4 32 4 36 0 50 -2 33 -4z m-65 -255 l3 -97 47 -3 47
-3 3 -72 3 -73 -51 0 -50 0 0 -165 c0 -91 -4 -165 -9 -165 -5 0 -25 7 -45 15
-20 8 -69 18 -108 21 -69 5 -92 1 -195 -31 l-23 -7 0 166 0 166 -50 0 -50 0 0
75 0 75 50 0 50 0 0 100 0 100 188 -2 187 -3 3 -97z m-388 -428 l0 -160 -45 0
-45 0 0 160 0 160 45 0 45 0 0 -160z m490 0 l0 -160 -45 0 -45 0 0 160 0 160
45 0 45 0 0 -160z m-157 -147 c26 -9 47 -23 47 -29 0 -9 -14 -6 -47 9 -62 27
-194 29 -266 3 -59 -21 -76 -13 -21 10 87 36 196 39 287 7z m-333 -33 c0 -5
-20 -10 -45 -10 -25 0 -45 5 -45 10 0 6 20 10 45 10 25 0 45 -4 45 -10z m485
0 c4 -6 -13 -10 -45 -10 -32 0 -49 4 -45 10 3 6 24 10 45 10 21 0 42 -4 45
-10z"/>
<path d="M505 873 c-76 -40 -109 -99 -103 -185 7 -98 84 -172 182 -173 66 0
122 29 161 84 26 37 30 52 30 104 -1 77 -35 136 -99 167 -51 24 -128 26 -171
3z m165 -13 c146 -75 117 -293 -46 -330 -103 -24 -214 66 -214 175 0 129 143
215 260 155z"/>
<path d="M500 700 l0 -90 90 0 90 0 0 90 0 90 -90 0 -90 0 0 -90z m135 60
c-10 -11 -30 -20 -45 -20 -15 0 -35 9 -45 20 -18 20 -17 20 45 20 62 0 63 0
45 -20z m-85 -55 c0 -19 -8 -39 -20 -50 -20 -18 -20 -17 -20 50 0 67 0 68 20
50 12 -11 20 -31 20 -50z m119 -7 l2 -62 -20 18 c-23 21 -28 75 -9 94 21 21
25 14 27 -50z m-59 7 c0 -20 -5 -25 -25 -25 -18 0 -25 5 -25 18 0 24 8 32 32
32 13 0 18 -7 18 -25z m21 -55 l24 -19 -65 0 -65 0 24 19 c13 11 31 20 41 20
10 0 28 -9 41 -20z"/>
<path d="M1004 1376 c-3 -7 -4 -38 -2 -67 l3 -54 68 -3 67 -3 0 -49 0 -49 -67
-3 -68 -3 0 -450 0 -450 53 -3 c40 -2 66 3 100 19 34 17 70 24 132 27 75 4 94
1 151 -22 41 -16 85 -26 117 -26 l52 0 0 455 0 455 -70 0 -70 0 0 50 0 50 70
0 70 0 0 70 0 70 -300 0 c-245 0 -302 -3 -306 -14z m586 -56 l0 -49 -82 -3
-83 -3 0 -75 0 -75 83 -3 82 -3 0 -159 0 -160 -40 0 -40 0 0 100 0 100 -205 0
-205 0 0 -100 0 -100 -40 0 -40 0 0 160 0 160 85 0 85 0 0 80 0 80 -85 0 -85
0 0 50 0 50 285 0 285 0 0 -50z m-410 -125 c0 -30 -4 -55 -10 -55 -5 0 -10 25
-10 55 0 30 5 55 10 55 6 0 10 -25 10 -55z m267 -27 c-2 -18 -4 -6 -4 27 0 33
2 48 4 33 2 -15 2 -42 0 -60z m43 -293 l0 -95 50 0 50 0 0 -75 0 -75 -50 0
-50 0 0 -163 0 -164 -52 18 c-86 30 -206 24 -300 -16 -17 -7 -18 5 -18 159 l0
166 -50 0 -50 0 0 75 0 75 50 0 50 0 0 95 0 95 185 0 185 0 0 -95z m-390 -425
l0 -160 -40 0 -40 0 0 160 0 160 40 0 40 0 0 -160z m490 0 l0 -160 -40 0 -40
0 0 160 0 160 40 0 40 0 0 -160z m-136 -153 c56 -25 41 -29 -24 -7 -30 11 -80
19 -110 20 -49 0 -77 -5 -180 -35 -40 -12 -11 12 35 29 55 21 226 17 279 -7z
m-349 -27 c4 -6 -12 -10 -39 -10 -25 0 -46 5 -46 10 0 6 18 10 39 10 22 0 43
-4 46 -10z m485 0 c0 -5 -18 -10 -40 -10 -22 0 -40 5 -40 10 0 6 18 10 40 10
22 0 40 -4 40 -10z"/>
<path d="M1268 891 c-131 -26 -192 -176 -119 -294 79 -129 282 -106 337 38 54
142 -68 285 -218 256z m137 -42 c103 -70 97 -232 -11 -295 -134 -79 -299 51
-254 199 13 46 76 113 112 120 49 11 118 0 153 -24z"/>
<path d="M1220 700 l0 -90 90 0 90 0 0 90 0 90 -90 0 -90 0 0 -90z m135 60
c-28 -31 -105 -23 -105 12 0 4 28 8 62 8 60 0 61 0 43 -20z m-85 -60 c0 -15
-9 -35 -20 -45 -20 -18 -20 -17 -20 45 0 62 0 63 20 45 11 -10 20 -30 20 -45z
m110 -1 c0 -54 -2 -60 -15 -49 -25 21 -15 110 12 110 2 0 3 -28 3 -61z m-50 1
c0 -15 -7 -20 -25 -20 -18 0 -25 5 -25 20 0 15 7 20 25 20 18 0 25 -5 25 -20z
m20 -55 c11 -13 5 -15 -45 -15 -50 0 -56 2 -45 15 7 8 27 15 45 15 18 0 38 -7
45 -15z"/>
<path d="M1730 1336 c0 -30 -3 -61 -6 -70 -5 -14 5 -16 70 -16 l76 0 0 -50 0
-49 -71 -3 -71 -3 1 -449 0 -449 58 1 c38 0 75 8 108 23 72 33 189 32 265 -2
42 -18 69 -23 113 -21 l57 3 0 214 0 215 25 0 25 0 0 125 0 125 -25 0 -25 0 0
110 0 110 -70 0 -70 0 0 50 0 50 70 0 71 0 -3 68 -3 67 -297 3 -298 2 0 -54z
m580 -21 l0 -55 -85 0 -85 0 0 -70 0 -70 85 0 85 0 0 -165 0 -165 -40 0 -40 0
0 100 0 100 -202 -2 -203 -3 0 -95 0 -95 -42 -3 -43 -3 0 165 0 166 85 0 85 0
0 70 0 70 -85 0 -85 0 0 55 0 55 285 0 285 0 0 -55z m-410 -120 c0 -30 -4 -55
-10 -55 -5 0 -10 25 -10 55 0 30 5 55 10 55 6 0 10 -25 10 -55z m270 0 c0 -30
-4 -55 -10 -55 -5 0 -10 25 -10 55 0 30 5 55 10 55 6 0 10 -25 10 -55z m-337
-62 c-18 -2 -48 -2 -65 0 -18 2 -4 4 32 4 36 0 50 -2 33 -4z m415 0 c-10 -2
-28 -2 -40 0 -13 2 -5 4 17 4 22 1 32 -1 23 -4z m55 0 c-7 -2 -19 -2 -25 0 -7
3 -2 5 12 5 14 0 19 -2 13 -5z m-93 -253 l0 -100 50 0 50 0 0 -75 0 -75 -50 0
-50 0 0 -166 c0 -154 -1 -166 -17 -159 -37 16 -130 35 -168 35 -38 0 -131 -19
-167 -35 -17 -7 -18 5 -18 159 l0 166 -50 0 -50 0 0 75 0 75 50 0 50 0 0 100
0 100 185 0 185 0 0 -100z m160 -75 c0 -108 -1 -115 -20 -115 -19 0 -20 7 -20
115 0 108 1 115 20 115 19 0 20 -7 20 -115z m-542 -352 l-3 -158 -42 -3 -43
-3 0 160 0 161 45 0 46 0 -3 -157z m482 -3 l0 -160 -40 0 -40 0 0 160 0 160
40 0 40 0 0 -160z m-215 -131 c65 -12 115 -34 115 -50 0 -5 -12 -3 -27 5 -77
39 -193 43 -290 10 -25 -9 -47 -13 -50 -10 -9 8 59 38 106 46 67 11 81 11 146
-1z m-265 -49 c0 -5 -20 -10 -45 -10 -25 0 -45 5 -45 10 0 6 20 10 45 10 25 0
45 -4 45 -10z m480 0 c0 -5 -21 -10 -46 -10 -27 0 -43 4 -39 10 3 6 24 10 46
10 21 0 39 -4 39 -10z"/>
<path d="M1945 874 c-85 -44 -124 -126 -101 -215 38 -146 209 -194 315 -87 59
58 72 151 33 223 -16 30 -64 72 -95 84 -41 16 -117 13 -152 -5z m162 -15 c29
-14 52 -35 69 -65 52 -89 15 -214 -74 -251 -89 -37 -191 -2 -231 80 -76 157
79 312 236 236z"/>
<path d="M1937 703 l1 -88 86 0 c47 0 86 3 86 8 0 4 0 43 0 87 l0 80 -87 0
-88 0 2 -87z m138 57 c-11 -12 -31 -20 -50 -20 -19 0 -39 8 -50 20 -18 20 -17
20 50 20 67 0 68 0 50 -20z m-85 -60 c0 -15 -9 -35 -20 -45 -20 -18 -20 -17
-20 45 0 62 0 63 20 45 11 -10 20 -30 20 -45z m110 -2 c0 -60 0 -61 -20 -43
-24 22 -26 62 -3 87 9 10 18 18 20 18 1 0 3 -28 3 -62z m-50 7 c0 -20 -5 -25
-25 -25 -20 0 -25 5 -25 25 0 20 5 25 25 25 20 0 25 -5 25 -25z m15 -55 c18
-20 17 -20 -40 -20 -57 0 -58 0 -40 20 10 11 28 20 40 20 12 0 30 -9 40 -20z"/>
</g>
</svg>
