<svg xmlns="http://www.w3.org/2000/svg" width="96" height="96" viewBox="0 0 96 96">
  <g id="app-icon" transform="translate(-1977.763 -385.763)">
    <rect id="Rectangle_79" data-name="Rectangle 79" width="96" height="96" rx="25" transform="translate(1977.763 385.763)" fill="#171720"/>
    <g id="Group_124" data-name="Group 124" transform="translate(1994.608 402.675)">
      <path id="Path_23" data-name="Path 23" d="M424.977,584H397.358c-7.446,0-14.721,6.056-16.216,13.5l-7.047,35.063a11.489,11.489,0,0,0,2.073,9.641,11,11,0,0,0,8.8,3.971h9.153a.669.669,0,0,0,.636-.51.524.524,0,0,0-.357-.646c-5.5-1.54-8.5-6.814-7.289-12.828l2.452-12.2h28.345a6.037,6.037,0,0,1,4.8,2.142.554.554,0,0,0,.613.155.678.678,0,0,0,.444-.524,11.351,11.351,0,0,0-2.329-9.254,11.031,11.031,0,0,0-8.637-3.778H391.83l2.043-10.165a4.253,4.253,0,0,1,3.973-3.308h23.9c6.6,0,11.3,4.71,11.163,11.2a.515.515,0,0,0,.524.538h0a.676.676,0,0,0,.643-.533l1.78-8.857a11.494,11.494,0,0,0-2.073-9.641A11,11,0,0,0,424.977,584Z" transform="translate(-373.818 -584)" fill="#fff"/>
    </g>
  </g>
</svg>
