<svg xmlns="http://www.w3.org/2000/svg" width="76.589" height="35.345" viewBox="0 0 76.589 35.345">
  <g id="Group_1" data-name="Group 1" transform="translate(3033.299 -2571.037)">
    <path id="Path_1" data-name="Path 1" d="M-2577.781,2730.224a.943.943,0,0,1,.21-.035,2.024,2.024,0,0,1,.864.226,1.39,1.39,0,0,0,.429.129,1.369,1.369,0,0,1,.682.235.687.687,0,0,0,.373.109c.191.02.38.066.569.1a.166.166,0,0,1,.084.041.915.915,0,0,0,.644.206.767.767,0,0,1,.539.229.313.313,0,0,0,.169.066c.117.022.236.031.354.048a.7.7,0,0,1,.4.188.392.392,0,0,0,.268.115,1.5,1.5,0,0,1,.333.049.67.67,0,0,1,.26.136.675.675,0,0,0,.406.172,2.137,2.137,0,0,1,.35.063.337.337,0,0,1,.168.11.322.322,0,0,0,.237.131c.087.011.172.036.259.048a.494.494,0,0,1,.313.155.538.538,0,0,0,.384.17.625.625,0,0,1,.508.239.3.3,0,0,0,.164.073c.1.026.208.042.313.062a.389.389,0,0,1,.234.144.426.426,0,0,0,.184.111c.094.033.2.042.292.072.064.02.15.039.18.088a.549.549,0,0,0,.416.225.69.69,0,0,1,.386.2.714.714,0,0,0,.339.141.511.511,0,0,1,.308.159.679.679,0,0,0,.381.187.464.464,0,0,1,.231.105.719.719,0,0,0,.421.227.425.425,0,0,1,.292.182.287.287,0,0,0,.137.087c.087.034.178.06.268.087a.3.3,0,0,1,.217.165.207.207,0,0,0,.177.119.656.656,0,0,1,.474.271.239.239,0,0,0,.158.083.715.715,0,0,1,.363.182,1.235,1.235,0,0,0,.323.179.454.454,0,0,1,.239.167.341.341,0,0,0,.16.115.888.888,0,0,1,.452.287.308.308,0,0,0,.177.089.593.593,0,0,1,.271.155,2.4,2.4,0,0,0,.344.219c.053.032.129.05.157.1a.5.5,0,0,0,.362.237.16.16,0,0,1,.092.062,1,1,0,0,0,.406.292.327.327,0,0,1,.082.046,1,1,0,0,0,.453.315c.093.171.276.221.424.319.182.121.353.256.528.387a.51.51,0,0,1,.079.08c.02.024.031.064.056.074.218.087.349.292.549.4a.734.734,0,0,1,.127.078c.214.183.423.372.639.552.2.164.4.318.6.478a.643.643,0,0,1,.081.078.8.8,0,0,0,.056.075q.258.226.52.447c.028.024.072.035.092.063a2.239,2.239,0,0,0,.379.36c.227.2.445.419.661.635.164.163.319.334.48.5s.338.334.5.511.29.344.422.526a1.964,1.964,0,0,1,.3.516,2.891,2.891,0,0,1,.279,1.063.766.766,0,0,1-.1.394.63.63,0,0,0-.117.389.307.307,0,0,1-.016.111c-.042.129-.115.157-.218.068a.19.19,0,0,0-.269-.017.4.4,0,0,1-.156.062c-.152.029-.241-.028-.239-.179a1.979,1.979,0,0,0-.266-.813c-.079-.183-.142-.373-.211-.56a1.714,1.714,0,0,0-.068-.194c-.094-.183-.192-.364-.293-.544a1.222,1.222,0,0,0-.11-.15.847.847,0,0,0-.588-.416c-.016,0-.031-.02-.047-.03-.143-.092-.242-.058-.288.108a.776.776,0,0,0-.012.2c0,.231,0,.463.01.694a2.46,2.46,0,0,0,.059.538,1.261,1.261,0,0,0,.443.57c.079.07.154.144.229.218.018.017.027.046.047.058a2.906,2.906,0,0,1,.488.489.459.459,0,0,0,.276.148.231.231,0,0,1,.207.19.585.585,0,0,0,.223.313,1.578,1.578,0,0,1,.437.461.2.2,0,0,0,.057.073,2.215,2.215,0,0,1,.419.427c.258.305.528.6.776.914.217.275.415.565.61.856.1.145.158.313.25.461a2.5,2.5,0,0,1,.241,1.478,4.132,4.132,0,0,1-.07.52.205.205,0,0,1-.061.133c-.136.082-.148.216-.188.348a.568.568,0,0,1-.269.411.223.223,0,0,0-.086.136.266.266,0,0,1-.2.224.159.159,0,0,0-.127.145.225.225,0,0,1-.2.2.217.217,0,0,0-.177.169.436.436,0,0,1-.367.218.152.152,0,0,1-.082-.04.285.285,0,0,0-.376-.028.5.5,0,0,1-.254.033c-.108-.008-.135-.057-.088-.152a1.515,1.515,0,0,0-.043-1.338,2.449,2.449,0,0,0-.5-.7,1,1,0,0,0-.464-.3.286.286,0,0,1-.149-.124.2.2,0,0,0-.179-.113.312.312,0,0,1-.282-.156c-.07-.114-.2-.13-.306-.167a.563.563,0,0,1-.327-.2.26.26,0,0,0-.145-.075,1.585,1.585,0,0,1-.605-.238,1.012,1.012,0,0,0-.351-.124,2.15,2.15,0,0,1-.594-.225,1.244,1.244,0,0,0-.393-.118,2.1,2.1,0,0,1-.6-.22,1.357,1.357,0,0,0-.376-.108,2.4,2.4,0,0,1-.671-.232,1.438,1.438,0,0,0-.378-.106,4.056,4.056,0,0,1-.678-.212,5.223,5.223,0,0,0-.725-.191,1.688,1.688,0,0,1-.251-.076,3.713,3.713,0,0,0-.737-.218c-.213-.045-.42-.117-.63-.177-.108-.031-.217-.064-.326-.091-.437-.109-.874-.219-1.313-.322-.177-.042-.357-.066-.535-.1-.141-.029-.281-.062-.421-.1-.3-.071-.595-.148-.894-.216s-.6-.131-.9-.193q-.285-.06-.572-.112c-.419-.075-.838-.153-1.258-.221-.551-.089-1.1-.157-1.653-.257-1.3-.238-2.623-.339-3.935-.5-.572-.071-1.149-.095-1.725-.13-.951-.059-1.9-.121-2.854-.16-1.479-.061-2.959-.066-4.437,0q-2,.083-4,.217c-.719.049-1.434.149-2.15.231-.535.061-1.07.126-1.6.2-.316.042-.631.1-.947.151-.353.055-.708.1-1.059.159-.555.1-1.109.2-1.662.312-.184.036-.364.093-.545.142a1.762,1.762,0,0,1-1.054-.049.563.563,0,0,1-.1-.044c-.088-.052-.09-.112,0-.172a1.378,1.378,0,0,1,.148-.081c.188-.1.383-.186.563-.3.287-.176.563-.369.845-.553.042-.027.087-.048.131-.073l.47-.272c.032-.019.061-.045.094-.062.282-.148.567-.291.846-.443s.563-.321.847-.479c.076-.042.162-.066.241-.1.316-.15.639-.287.944-.458.215-.12.441-.207.663-.306.36-.16.713-.334,1.071-.5.188-.085.389-.144.569-.241a6.793,6.793,0,0,1,.677-.275c.4-.166.793-.339,1.191-.5.109-.045.227-.069.338-.112.2-.078.4-.181.61-.242.451-.131.864-.368,1.327-.466a2.208,2.208,0,0,0,.279-.11c.176-.064.353-.125.53-.186.154-.053.307-.106.462-.156.2-.066.4-.127.606-.195s.377-.135.567-.2c.142-.047.289-.082.431-.128.214-.069.426-.144.639-.215.083-.028.168-.049.252-.074l1.042-.312c.06-.018.121-.031.182-.047.205-.056.41-.113.615-.168.344-.092.69-.181,1.033-.276.138-.039.271-.1.409-.136.193-.053.392-.085.583-.144s.4-.146.6-.223a2.562,2.562,0,0,0,.328-.138,4.651,4.651,0,0,0,1.41-1.131,4.541,4.541,0,0,0,.537-.808,3.67,3.67,0,0,0,.318-2.252c-.04-.259-.126-.51-.19-.765a6.258,6.258,0,0,0-.288-.811c-.115-.287-.278-.545-.406-.823a.1.1,0,0,0-.018-.033c-.244-.209-.293-.567-.574-.75a.285.285,0,0,1-.09-.118.327.327,0,0,0-.217-.191.231.231,0,0,1-.163-.169.215.215,0,0,0-.178-.169.305.305,0,0,1-.142-.084,5.146,5.146,0,0,0-.844-.672A.4.4,0,0,1-2577.781,2730.224Z" transform="translate(-405.733 -147.975)" fill="#fff"/>
    <path id="Path_2" data-name="Path 2" d="M-3033.3,2580.332c.027-.133.116-.163.208-.187a1.605,1.605,0,0,0,.219-.051.614.614,0,0,0,.2-.127.839.839,0,0,1,.3-.191c.167-.068.324-.16.485-.241l.286-.14c.489-.24.975-.485,1.467-.718.4-.187.8-.36,1.2-.541.091-.041.177-.094.267-.137.3-.143.6-.286.9-.424.108-.049.225-.077.334-.125.436-.189.867-.387,1.3-.572.374-.157.755-.3,1.132-.45.163-.065.319-.147.486-.2.441-.14.85-.368,1.3-.475a1.2,1.2,0,0,0,.139-.057l.58-.215c.235-.086.469-.175.705-.257.13-.045.265-.075.395-.12.2-.067.387-.144.582-.211.112-.039.229-.064.342-.1.161-.051.32-.108.48-.16s.334-.1.5-.155c.186-.057.371-.115.557-.17.228-.067.457-.13.685-.2.2-.059.393-.125.591-.185.132-.04.264-.077.4-.112q.4-.106.8-.207c.23-.058.462-.111.693-.168.176-.044.351-.092.527-.137.242-.062.484-.126.728-.184s.5-.111.751-.167l.788-.174c.287-.064.574-.131.862-.19.245-.051.491-.1.737-.142.3-.056.6-.114.905-.167.376-.066.753-.125,1.129-.19s.776-.144,1.166-.205c.3-.047.6-.074.895-.114.528-.071,1.054-.156,1.583-.214.635-.07,1.273-.116,1.909-.176.506-.048,1.01-.112,1.516-.147.775-.054,1.551-.105,2.328-.129,1.153-.035,2.306-.051,3.459-.064.533-.006,1.066.008,1.6.022,1.128.029,2.256.053,3.384.1.406.017.808.1,1.213.143.5.049,1,.1,1.5.117a9.4,9.4,0,0,1,1.975.226,5.872,5.872,0,0,0,1.289.125,5.786,5.786,0,0,1,1.294.22,4.025,4.025,0,0,0,.61.1c.225.024.453.013.675.05a5.09,5.09,0,0,1,.726.187,2.2,2.2,0,0,0,.59.1,2.428,2.428,0,0,1,.96.146,2.22,2.22,0,0,0,.928.2,1.8,1.8,0,0,1,.849.213,1.322,1.322,0,0,0,.6.119,1.861,1.861,0,0,1,.68.128.414.414,0,0,1,.1.047.816.816,0,0,0,.567.157,1.414,1.414,0,0,1,.8.227.738.738,0,0,0,.281.088c.21.036.422.056.632.092a.33.33,0,0,1,.184.082.634.634,0,0,0,.477.179c.1.008.2.019.3.03a.685.685,0,0,1,.375.16.628.628,0,0,0,.4.14,1.069,1.069,0,0,1,.715.24.572.572,0,0,0,.259.09c.1.022.211.028.316.041a.564.564,0,0,1,.318.149.618.618,0,0,0,.41.161,2.079,2.079,0,0,1,.351.061.221.221,0,0,1,.129.07.557.557,0,0,0,.461.212.821.821,0,0,1,.536.238.384.384,0,0,0,.185.076c.109.026.221.041.332.061a.373.373,0,0,1,.234.143.371.371,0,0,0,.167.105c.1.033.21.04.31.074a.655.655,0,0,1,.242.129.657.657,0,0,0,.4.188.6.6,0,0,1,.353.158.71.71,0,0,0,.383.185.87.87,0,0,1,.226.085c.17.078.343.152.506.243a4.475,4.475,0,0,1,.454.3.164.164,0,0,1,.06.139c-.014.036-.087.06-.137.07a.351.351,0,0,1-.148-.013,24.676,24.676,0,0,0-2.891-.479,27.807,27.807,0,0,0-3.807-.24,9.892,9.892,0,0,0-1.9.2c-.159.033-.324.044-.48.087a4.121,4.121,0,0,0-.453.17c-.1.04-.189.095-.289.128a.588.588,0,0,0-.377.256.27.27,0,0,1-.231.142c-.1,0-.145.042-.15.148a.555.555,0,0,1-.2.41.384.384,0,0,0-.133.279,2.026,2.026,0,0,0,.181,1.19c.053.1.071.215.119.316a6.69,6.69,0,0,0,.625,1.046,8.161,8.161,0,0,0,.691.863c.2.209.407.407.616.6a1.69,1.69,0,0,1,.359.515,1.277,1.277,0,0,1-.164-.046,4.222,4.222,0,0,1-.6-.272c-.241-.153-.514-.233-.754-.371a4.182,4.182,0,0,0-.659-.309,1.552,1.552,0,0,1-.159-.1c-.133-.068-.269-.133-.4-.2a3.531,3.531,0,0,1-.354-.165,1.175,1.175,0,0,0-.427-.182.769.769,0,0,1-.433-.21.425.425,0,0,0-.18-.088c-.114-.034-.232-.052-.347-.084a.331.331,0,0,1-.151-.071.84.84,0,0,0-.473-.212,1.655,1.655,0,0,1-.463-.2,1.38,1.38,0,0,0-.291-.119,1.515,1.515,0,0,1-.568-.228,1.286,1.286,0,0,0-.387-.133,1.516,1.516,0,0,1-.384-.144,1.762,1.762,0,0,0-.557-.21,1.807,1.807,0,0,1-.38-.152,3.939,3.939,0,0,0-.7-.224c-.087-.03-.167-.08-.254-.114a3.419,3.419,0,0,0-.4-.145,2.092,2.092,0,0,1-.631-.23,1.137,1.137,0,0,0-.357-.108,2.311,2.311,0,0,1-.689-.235,1.457,1.457,0,0,0-.4-.111,3.941,3.941,0,0,1-.624-.2,5.482,5.482,0,0,0-.723-.2,1.942,1.942,0,0,1-.267-.086,4.11,4.11,0,0,0-.736-.222c-.2-.046-.393-.122-.59-.18a4.377,4.377,0,0,0-.436-.114,7.121,7.121,0,0,1-.906-.243c-.237-.077-.489-.105-.734-.16a2.99,2.99,0,0,1-.4-.107,5.79,5.79,0,0,0-1.025-.231,1.959,1.959,0,0,1-.275-.059,9.825,9.825,0,0,0-1.394-.3c-.252-.046-.5-.127-.75-.175-.3-.057-.595-.091-.891-.144-.382-.069-.761-.156-1.145-.218-.458-.074-.922-.109-1.377-.2-1.2-.229-2.424-.319-3.639-.443s-2.464-.171-3.7-.224c-1.937-.083-3.875-.036-5.809.071-.763.042-1.523.136-2.284.211-.593.059-1.185.118-1.776.193-.417.053-.829.136-1.243.2-.377.061-.756.113-1.132.178-.463.079-.926.162-1.386.254-.227.045-.446.125-.672.175-.318.07-.64.121-.958.19-.121.026-.235.084-.356.115-.219.055-.438.106-.66.146a3.394,3.394,0,0,0-.63.177,6.459,6.459,0,0,1-.672.172c-.175.046-.347.1-.521.153-.2.06-.406.125-.612.175a2.043,2.043,0,0,0-.548.185,1.425,1.425,0,0,1-.41.129,1.936,1.936,0,0,0-.654.217,1.357,1.357,0,0,1-.408.133,1.823,1.823,0,0,0-.579.2,1.391,1.391,0,0,1-.445.14,1.552,1.552,0,0,0-.518.206,1.984,1.984,0,0,1-.459.15,1.226,1.226,0,0,0-.332.121,1.486,1.486,0,0,1-.647.232.512.512,0,0,0-.311.155.637.637,0,0,1-.4.144c-.112.016-.224.025-.337.035a.176.176,0,0,0-.183.131.188.188,0,0,1-.2.136c-.106.005-.213,0-.319,0s-.188,0-.281.008a.193.193,0,0,0-.2.141c-.027.1-.1.117-.192.116-.156,0-.313,0-.47-.005-.092,0-.161.018-.184.118a.2.2,0,0,1-.209.156A.53.53,0,0,1-3033.3,2580.332Z" fill="#fff"/>
    <path id="Path_3" data-name="Path 3" d="M-2905.138,2704.54a1.3,1.3,0,0,1-.151.734.949.949,0,0,0-.081.286c-.031.127-.051.258-.09.382a.273.273,0,0,1-.112.141.272.272,0,0,0-.151.2.226.226,0,0,1-.192.2.169.169,0,0,0-.151.144.22.22,0,0,1-.249.181c-.212,0-.425,0-.637-.016a.273.273,0,0,1-.18-.083.879.879,0,0,0-.392-.248.538.538,0,0,1-.254-.182.309.309,0,0,0-.169-.1.83.83,0,0,1-.487-.259.317.317,0,0,0-.18-.084.824.824,0,0,1-.492-.25.352.352,0,0,0-.18-.086.855.855,0,0,1-.528-.259.31.31,0,0,0-.151-.065c-.108-.031-.219-.052-.327-.083a.249.249,0,0,1-.132-.065.685.685,0,0,0-.46-.224,1.092,1.092,0,0,1-.372-.167,1.219,1.219,0,0,0-.381-.151,1.52,1.52,0,0,1-.51-.23.588.588,0,0,0-.2-.084,1.64,1.64,0,0,1-.631-.223,1.123,1.123,0,0,0-.35-.129,2,2,0,0,1-.591-.228,1.129,1.129,0,0,0-.375-.113,2.353,2.353,0,0,1-.633-.228,1.522,1.522,0,0,0-.414-.112,2.287,2.287,0,0,1-.621-.207,1.366,1.366,0,0,0-.376-.112,6.173,6.173,0,0,1-.742-.2c-.265-.09-.546-.134-.818-.2-.333-.086-.662-.19-1-.266-.58-.132-1.163-.251-1.746-.37-.392-.08-.786-.157-1.181-.22-.514-.081-1.03-.147-1.545-.215-.547-.072-1.093-.155-1.641-.2a44.385,44.385,0,0,0-6.405-.147c-.763.044-1.528.081-2.288.156-.81.081-1.616.2-2.424.31-.093.012-.185.037-.277.054-.4.072-.8.138-1.2.217-.27.054-.535.132-.8.19-.336.073-.675.136-1.013.2a.293.293,0,0,0-.055.011,6.15,6.15,0,0,1-1.16.3,3.767,3.767,0,0,0-.386.141c-.149.047-.3.086-.453.122a3.334,3.334,0,0,0-.643.2,4.981,4.981,0,0,1-.682.2,1.188,1.188,0,0,0-.26.1,2.382,2.382,0,0,1-.711.232,1.174,1.174,0,0,0-.307.131,2.119,2.119,0,0,1-.472.172.961.961,0,0,0-.509.217.324.324,0,0,1-.206.075c-.174.006-.35,0-.524-.014a.513.513,0,0,0-.481.129.438.438,0,0,1-.447.053.076.076,0,0,1-.023-.144.53.53,0,0,1,.2-.086.487.487,0,0,0,.244-.128,1.375,1.375,0,0,1,.256-.188c.407-.233.819-.457,1.226-.69.292-.168.575-.349.865-.52.1-.057.2-.094.3-.147.358-.192.71-.4,1.072-.579s.722-.343,1.084-.512c.187-.087.374-.173.562-.257.434-.193.865-.391,1.3-.573.4-.168.815-.317,1.223-.476s.813-.322,1.222-.478c.123-.046.254-.068.378-.11.2-.065.388-.141.583-.206.136-.046.277-.079.414-.123.208-.067.414-.142.623-.206.149-.046.3-.078.454-.12.2-.057.408-.12.612-.178.168-.048.337-.093.507-.138.29-.077.579-.159.871-.228.335-.078.674-.141,1.01-.216.165-.037.326-.089.49-.128s.354-.078.533-.113c.362-.07.725-.141,1.089-.206.32-.057.642-.106.963-.159.414-.069.826-.147,1.242-.206.384-.054.771-.087,1.157-.13.641-.071,1.282-.152,1.925-.209.549-.049,1.1-.082,1.651-.1,2.2-.087,4.4-.058,6.6.011a10.392,10.392,0,0,1,1.647.14c.405.077.819.114,1.23.153.268.026.538.029.807.033a5.461,5.461,0,0,1,1.2.193c.273.066.553.105.832.145a1.027,1.027,0,0,0,.317-.012.5.5,0,0,1,.506.171.3.3,0,0,0,.207.115.467.467,0,0,1,.274.148c.136.128.29.238.426.367a12.118,12.118,0,0,1,1.041,1.135,14.169,14.169,0,0,1,1,1.361c.212.332.415.668.6,1.018a5.96,5.96,0,0,1,.3.665c.03.081.091.152.12.233.056.152.1.308.146.465.058.2.1.414.166.616A3.363,3.363,0,0,1-2905.138,2704.54Z" transform="translate(-80.438 -116.738)" fill="#fff"/>
    <path id="Path_4" data-name="Path 4" d="M-2803.731,2835.382a.168.168,0,0,1,0-.053c.064-.155.12-.315.2-.464a1.476,1.476,0,0,0,.1-.864,4.425,4.425,0,0,0-.148-.7c-.031-.11-.12-.2-.157-.313a1.754,1.754,0,0,0-.391-.557c-.072-.084-.132-.166-.254-.166a.129.129,0,0,1-.139-.1.169.169,0,0,0-.2-.147.265.265,0,0,1-.26-.15.384.384,0,0,0-.157-.118c-.078-.038-.167-.054-.247-.09a.346.346,0,0,1-.152-.1.365.365,0,0,0-.283-.155.985.985,0,0,1-.519-.2.448.448,0,0,0-.172-.07c-.325-.093-.648-.191-.976-.271-.267-.065-.54-.109-.811-.16-.388-.073-.774-.159-1.165-.211-.515-.068-1.033-.119-1.552-.157a18.407,18.407,0,0,0-3.548.1c-.7.084-1.389.2-2.082.318-.228.038-.448.121-.675.167-.313.065-.629.114-.943.171a.606.606,0,0,0-.144.041,2.225,2.225,0,0,1-.991.175c-.163,0-.326-.008-.489,0a.335.335,0,0,0-.205.07.482.482,0,0,1-.415.127,1.536,1.536,0,0,1-.26-.035c-.034-.009-.082-.054-.082-.083s.043-.073.077-.091a.491.491,0,0,1,.144-.039c.1-.019.2-.033.3-.052a.25.25,0,0,0,.123-.039,2.277,2.277,0,0,1,.882-.393c.291-.116.584-.223.878-.329.129-.047.264-.08.393-.126.212-.076.42-.161.633-.235.142-.049.29-.08.433-.126.184-.06.366-.128.549-.19.106-.036.214-.067.322-.1.33-.1.66-.2.991-.288.126-.035.257-.053.384-.086.333-.086.665-.18,1-.265.133-.034.271-.05.406-.078.294-.06.588-.126.883-.183s.616-.11.924-.163.6-.107.908-.152c.409-.06.818-.124,1.229-.166.755-.078,1.51-.153,2.266-.207.669-.047,1.339-.084,2.01-.087q1.344-.006,2.688.052c.443.018.883.108,1.326.15.474.045.949.075,1.424.1a4.55,4.55,0,0,1,1.234.227,2.593,2.593,0,0,0,.536.086c.3.036.61.06.914.1a1.388,1.388,0,0,1,.227.084,4.351,4.351,0,0,0,.464.137,3.453,3.453,0,0,0,.375.025,1.255,1.255,0,0,1,.612.159,1.312,1.312,0,0,0,.681.177,2.606,2.606,0,0,1,.316.043.43.43,0,0,1,.259.14c.11.127.27.115.418.134s.274.027.408.055a.325.325,0,0,1,.177.095.628.628,0,0,0,.435.191q.176.027.348.071a.248.248,0,0,1,.131.069.389.389,0,0,0,.312.137.812.812,0,0,1,.639.378c.063.094.052.148-.053.19a1.308,1.308,0,0,1-.253.066,7.708,7.708,0,0,0-1.629.363,2.287,2.287,0,0,1-.439.1,2.817,2.817,0,0,0-.63.177,3.214,3.214,0,0,1-.611.181,1.466,1.466,0,0,0-.459.157,2.3,2.3,0,0,1-.6.2,3.186,3.186,0,0,0-.327.13c-.15.059-.3.125-.454.172a1.435,1.435,0,0,0-.529.222,1.045,1.045,0,0,1-.421.144.65.65,0,0,0-.3.136.8.8,0,0,1-.422.192.72.72,0,0,0-.4.191.547.547,0,0,1-.3.141.741.741,0,0,0-.444.223.5.5,0,0,1-.232.105.783.783,0,0,0-.438.234.387.387,0,0,1-.21.107.683.683,0,0,0-.389.209.438.438,0,0,1-.295.149.323.323,0,0,0-.243.125.626.626,0,0,1-.4.229.287.287,0,0,0-.225.146.415.415,0,0,1-.168.135,1.175,1.175,0,0,1-.228.087.346.346,0,0,0-.2.152.382.382,0,0,1-.51.126.335.335,0,0,0-.354-.008A.349.349,0,0,1-2803.731,2835.382Z" transform="translate(-197.53 -238.906)" fill="#fff"/>
  </g>
</svg>
