<svg xmlns="http://www.w3.org/2000/svg" width="41" height="41" viewBox="0 0 41 41">
  <g id="help-icon" transform="translate(-578.5 -379)">
    <g id="Ellipse_1" data-name="Ellipse 1">
      <circle id="Ellipse_1-2" data-name="Ellipse 1" cx="19.5" cy="19.5" r="19.5" transform="translate(579.5 380)" fill="none"/>
      <circle id="Ellipse_2" data-name="Ellipse 2" cx="17.5" cy="17.5" r="17.5" transform="translate(581.5 382)" fill="none" stroke="#5a5d72" stroke-width="6"/>
    </g>
    <path id="Path_40" data-name="Path 40" d="M4.959,2.526h2.7L7.947.913C10.828.331,13.155-1.043,13.155-4.4v-.053c0-3.516-2.591-5.472-6.4-5.472A8.351,8.351,0,0,0,.28-7.071L2.712-4.4A5.443,5.443,0,0,1,6.678-6.225c1.533,0,2.432.687,2.432,1.877V-4.3c0,1.4-1.3,2.274-4.626,2.406l-.132.132ZM4.087,8.817H8.37V4.588H4.087Z" transform="translate(592.283 400.054)" fill="#5a5d72"/>
  </g>
</svg>
