<svg xmlns="http://www.w3.org/2000/svg" width="19.803" height="24.205" viewBox="0 0 19.803 24.205">
  <g id="icon-eseq" transform="translate(-110.364 -146.772)">
    <path id="Path_49" data-name="Path 49" d="M229,467.043a1.848,1.848,0,0,0-1.794,1.763h3.542A1.778,1.778,0,0,0,229,467.043Z" transform="translate(-112.125 -307.354)" fill="#9f62b1"/>
    <g id="Group_127" data-name="Group 127" transform="translate(110.364 146.772)">
      <path id="Path_50" data-name="Path 50" d="M124.171,153.381l.012-6.609-12.272.059a1.547,1.547,0,0,0-1.547,1.547V169.43a1.547,1.547,0,0,0,1.547,1.547H128.62a1.547,1.547,0,0,0,1.547-1.547l-.023-16.049Zm-3.294,9.541h-5.769a1.923,1.923,0,0,0,2.026,1.624,2.717,2.717,0,0,0,2.011-.851l1.346,1.191a4.379,4.379,0,0,1-7.718-2.738v-.031a4.128,4.128,0,0,1,4.1-4.315c2.769,0,4.037,2.15,4.037,4.5C120.907,162.489,120.892,162.706,120.876,162.922Zm-.968-6.527,1.359-.68.68-1.359.68,1.359,1.359.68-1.359.68-.68,1.359-.68-1.359Zm6.53,5.606-1.133,2.265L124.174,162l-2.266-1.133,2.266-1.133,1.133-2.265,1.133,2.265,2.266,1.133Z" transform="translate(-110.364 -146.772)" fill="#9f62b1"/>
      <path id="Path_51" data-name="Path 51" d="M488.182,155.421h4.482a1.07,1.07,0,0,0-.215-.369l-4.015-4.477a1.07,1.07,0,0,0-.253-.207Z" transform="translate(-472.943 -150.224)" fill="#9f62b1"/>
    </g>
  </g>
</svg>
