<svg xmlns="http://www.w3.org/2000/svg" width="19.804" height="24.206" viewBox="0 0 19.804 24.206">
  <g id="icon-fseq" transform="translate(-841 459.092)">
    <path id="Path_56" data-name="Path 56" d="M1223.085-450.811l-4.015-4.477a1.067,1.067,0,0,0-.253-.207v5.052h4.482A1.071,1.071,0,0,0,1223.085-450.811Z" transform="translate(-362.579 -3.452)" fill="#6b95ec"/>
    <path id="Path_57" data-name="Path 57" d="M860.781-452.483h-5.974l.012-6.609-12.272.059A1.547,1.547,0,0,0,841-457.486v21.052a1.547,1.547,0,0,0,1.547,1.547h16.709a1.547,1.547,0,0,0,1.547-1.547Zm-10.142,8.534-5.325,3.228a.379.379,0,0,1-.576-.324v-6.121a.379.379,0,0,1,.56-.333l5.325,2.893A.379.379,0,0,1,850.639-443.949Zm.821-4.67h3.914v1.629H851.46Zm4.8,7.756h-3.8v-1.629h3.8Zm2.733-3.073h-4.616v-1.629h4.616Z" fill="#6b95ec"/>
  </g>
</svg>
