<svg xmlns="http://www.w3.org/2000/svg" width="20.5" height="20.5" viewBox="0 0 20.5 20.5">
  <g id="icon-plus-white" transform="translate(-5 -5)">
    <g id="Group_97" data-name="Group 97" transform="translate(5 5)">
      <path id="Path_37" data-name="Path 37" d="M24.036,16.714H16.714v7.321A1.469,1.469,0,0,1,15.25,25.5h0a1.469,1.469,0,0,1-1.464-1.464V16.714H6.464A1.469,1.469,0,0,1,5,15.25H5a1.469,1.469,0,0,1,1.464-1.464h7.321V6.464A1.469,1.469,0,0,1,15.25,5h0a1.469,1.469,0,0,1,1.464,1.464v7.321h7.321A1.469,1.469,0,0,1,25.5,15.25h0A1.469,1.469,0,0,1,24.036,16.714Z" transform="translate(-5 -5)" fill="#fff"/>
    </g>
  </g>
</svg>
