<svg xmlns="http://www.w3.org/2000/svg" width="39" height="39" viewBox="0 0 39 39">
  <g id="help-icon" transform="translate(-579.5 -380)">
    <g id="Ellipse_1" data-name="Ellipse 1">
      <circle id="Ellipse_1-2" data-name="Ellipse 1" cx="19.5" cy="19.5" r="19.5" transform="translate(579.5 380)" fill="none"/>
      <circle id="Ellipse_2" data-name="Ellipse 2" cx="17.5" cy="17.5" r="17.5" transform="translate(581.5 382)" fill="none" stroke="#8589a2" stroke-width="4"/>
    </g>
    <g id="_" data-name=" " style="isolation: isolate">
      <g id="Group_27" data-name="Group 27" style="isolation: isolate">
        <path id="Path_7" data-name="Path 7" d="M598.31,399.42a9.2,9.2,0,0,1,1.37-1.5,7.966,7.966,0,0,0,.97-1.01,1.5,1.5,0,0,0,.31-.93,1.371,1.371,0,0,0-.59-1.17,2.606,2.606,0,0,0-1.57-.43,3.489,3.489,0,0,0-1.67.39,3.56,3.56,0,0,0-1.23,1.09l-2.42-1.42a5.6,5.6,0,0,1,2.27-1.98,7.629,7.629,0,0,1,3.39-.7,6.282,6.282,0,0,1,3.69.98,3.147,3.147,0,0,1,1.391,2.72,3.578,3.578,0,0,1-.271,1.44,3.824,3.824,0,0,1-.66,1.05q-.391.43-1.011.99a8.494,8.494,0,0,0-1.079,1.11,1.756,1.756,0,0,0-.341,1.09H597.84A2.96,2.96,0,0,1,598.31,399.42Zm-.32,6.21a1.722,1.722,0,0,1-.55-1.29,1.675,1.675,0,0,1,.54-1.27,2.122,2.122,0,0,1,2.76,0,1.674,1.674,0,0,1,.539,1.27,1.721,1.721,0,0,1-.549,1.29,2.036,2.036,0,0,1-2.74,0Z" fill="#8589a2"/>
      </g>
    </g>
  </g>
</svg>
