<svg id="search-24px" xmlns="http://www.w3.org/2000/svg" width="24" height="24" viewBox="0 0 24 24">
  <g id="Group_99" data-name="Group 99">
    <rect id="Rectangle_71" data-name="Rectangle 71" width="24" height="24" fill="none"/>
  </g>
  <g id="Group_100" data-name="Group 100">
    <path id="Path_41" data-name="Path 41" d="M20.29,18.88l-5.56-5.56A6.477,6.477,0,0,0,10.86,3.14,6.5,6.5,0,0,0,7.58,15.71a6.426,6.426,0,0,0,5.74-.98l5.56,5.56a1,1,0,0,0,1.41,0h0A1,1,0,0,0,20.29,18.88ZM5,9.5A4.5,4.5,0,1,1,9.5,14,4.494,4.494,0,0,1,5,9.5Z" fill="#c6c6c6"/>
  </g>
</svg>
