<?xml version="1.0" encoding="utf-8"?>
<!-- Generator: Adobe Illustrator 24.1.1, SVG Export Plug-In . SVG Version: 6.00 Build 0)  -->
<svg version="1.1" id="Layer_1" xmlns="http://www.w3.org/2000/svg" xmlns:xlink="http://www.w3.org/1999/xlink" x="0px" y="0px"
	 viewBox="0 0 800 800" style="enable-background:new 0 0 800 800;" xml:space="preserve">
<style type="text/css">
	.st0{fill:#231F20;}
</style>
<g id="Group_1" transform="translate(3033.299 -2571.037)">
	<path id="Path_1" class="st0" d="M-2522.4,2890.6c0.7-0.2,1.4-0.3,2.1-0.4c3.1,0.1,6,0.9,8.8,2.3c1.4,0.7,2.8,1.1,4.4,1.3
		c2.5,0.2,4.9,1,6.9,2.4c1.1,0.7,2.4,1.1,3.8,1.1c1.9,0.2,3.9,0.7,5.8,1c0.3,0.1,0.6,0.2,0.9,0.4c1.8,1.5,4.2,2.3,6.5,2.1
		c2.1,0,4,0.9,5.5,2.3c0.5,0.4,1.1,0.6,1.7,0.7c1.2,0.2,2.4,0.3,3.6,0.5c1.5,0.2,2.9,0.8,4.1,1.9c0.7,0.7,1.7,1.1,2.7,1.2
		c1.1,0,2.3,0.2,3.4,0.5c1,0.3,1.9,0.7,2.6,1.4c1.1,1,2.6,1.6,4.1,1.7c1.2,0.1,2.4,0.3,3.6,0.6c0.7,0.2,1.3,0.6,1.7,1.1
		c0.6,0.8,1.4,1.3,2.4,1.3c0.9,0.1,1.7,0.4,2.6,0.5c1.2,0.1,2.3,0.7,3.2,1.6c1,1.1,2.4,1.7,3.9,1.7c2-0.1,3.9,0.8,5.2,2.4
		c0.5,0.4,1,0.7,1.7,0.7c1,0.3,2.1,0.4,3.2,0.6c0.9,0.2,1.8,0.7,2.4,1.5c0.5,0.5,1.2,0.9,1.9,1.1c1,0.3,2,0.4,3,0.7
		c0.6,0.2,1.5,0.4,1.8,0.9c1,1.4,2.5,2.2,4.2,2.3c1.5,0.2,2.9,0.9,3.9,2c1,0.8,2.2,1.3,3.4,1.4c1.2,0.2,2.3,0.7,3.1,1.6
		c1.1,1,2.4,1.7,3.9,1.9c0.9,0.1,1.7,0.5,2.3,1.1c1.1,1.2,2.6,2,4.3,2.3c1.2,0.2,2.3,0.8,3,1.8c0.4,0.4,0.9,0.7,1.4,0.9
		c0.9,0.3,1.8,0.6,2.7,0.9c1,0.2,1.8,0.8,2.2,1.7c0.3,0.7,1,1.2,1.8,1.2c1.9,0.2,3.7,1.2,4.8,2.7c0.4,0.5,1,0.8,1.6,0.8
		c1.4,0.2,2.7,0.9,3.7,1.8c1,0.8,2.1,1.4,3.3,1.8c1,0.3,1.8,0.9,2.4,1.7c0.4,0.5,1,0.9,1.6,1.2c1.8,0.5,3.4,1.5,4.6,2.9
		c0.5,0.5,1.1,0.8,1.8,0.9c1,0.3,2,0.8,2.7,1.6c1.1,0.8,2.3,1.6,3.5,2.2c0.5,0.3,1.3,0.5,1.6,1c0.8,1.3,2.1,2.2,3.7,2.4
		c0.4,0.1,0.7,0.3,0.9,0.6c1.1,1.3,2.5,2.3,4.1,3c0.3,0.1,0.6,0.3,0.8,0.5c1.2,1.5,2.8,2.6,4.6,3.2c0.9,1.7,2.8,2.2,4.3,3.2
		c1.8,1.2,3.6,2.6,5.4,3.9c0.3,0.2,0.6,0.5,0.8,0.8c0.2,0.2,0.3,0.6,0.6,0.8c2.2,0.9,3.5,3,5.6,4.1c0.5,0.2,0.9,0.5,1.3,0.8
		c2.2,1.9,4.3,3.8,6.5,5.6c2,1.7,4.1,3.2,6.1,4.8c0.3,0.2,0.6,0.5,0.8,0.8c0.2,0.3,0.4,0.5,0.6,0.8c1.7,1.5,3.5,3,5.3,4.5
		c0.3,0.2,0.7,0.4,0.9,0.6c1.1,1.4,2.4,2.6,3.8,3.7c2.3,2,4.5,4.2,6.7,6.4c1.7,1.7,3.2,3.4,4.9,5.1s3.4,3.4,5.1,5.2
		c1.6,1.8,2.9,3.5,4.3,5.3c1.3,1.6,2.3,3.3,3,5.2c1.6,3.4,2.6,7,2.8,10.8c0,1.4-0.3,2.8-1,4c-0.8,1.1-1.2,2.5-1.2,3.9
		c0,0.4,0,0.8-0.2,1.1c-0.4,1.3-1.2,1.6-2.2,0.7c-0.7-0.8-1.9-0.9-2.7-0.2c0,0,0,0,0,0c-0.5,0.3-1,0.5-1.6,0.6
		c-1.5,0.3-2.4-0.3-2.4-1.8c-0.3-2.9-1.2-5.7-2.7-8.2c-0.8-1.9-1.4-3.8-2.1-5.7c-0.2-0.7-0.4-1.3-0.7-2c-1-1.9-1.9-3.7-3-5.5
		c-0.3-0.5-0.7-1-1.1-1.5c-1.3-2.2-3.4-3.8-6-4.2c-0.2,0-0.3-0.2-0.5-0.3c-1.5-0.9-2.5-0.6-2.9,1.1c-0.1,0.7-0.2,1.3-0.1,2
		c0,2.3,0,4.7,0.1,7c0,1.8,0.2,3.7,0.6,5.5c0.9,2.3,2.5,4.3,4.5,5.8c0.8,0.7,1.6,1.5,2.3,2.2c0.2,0.2,0.3,0.5,0.5,0.6
		c1.8,1.5,3.5,3.1,4.9,5c0.7,0.8,1.7,1.3,2.8,1.5c1.1,0.1,1.9,0.9,2.1,1.9c0.4,1.3,1.2,2.4,2.3,3.2c1.8,1.2,3.3,2.8,4.4,4.7
		c0.1,0.3,0.3,0.5,0.6,0.7c1.6,1.2,3,2.7,4.2,4.3c2.6,3.1,5.4,6.1,7.9,9.3c2.2,2.8,4.2,5.7,6.2,8.7c1,1.5,1.6,3.2,2.5,4.7
		c2.3,4.6,3.2,9.9,2.4,15c-0.1,1.8-0.4,3.5-0.7,5.3c0,0.5-0.3,1-0.6,1.3c-1.4,0.8-1.5,2.2-1.9,3.5c-0.2,1.7-1.2,3.3-2.7,4.2
		c-0.5,0.3-0.8,0.8-0.9,1.4c-0.1,1.1-0.9,2-2,2.3c-0.7,0.1-1.2,0.7-1.3,1.5c-0.1,1.1-1,1.9-2,2c-0.9,0.1-1.6,0.8-1.8,1.7
		c-0.8,1.3-2.2,2.2-3.7,2.2c-0.3,0-0.6-0.2-0.8-0.4c-1-1-2.7-1.2-3.8-0.3c-0.8,0.3-1.7,0.4-2.6,0.3c-1.1-0.1-1.4-0.6-0.9-1.5
		c2-4.3,1.8-9.4-0.4-13.6c-1.3-2.6-3-5.1-5.1-7.1c-1.3-1.4-2.9-2.5-4.7-3c-0.6-0.2-1.2-0.7-1.5-1.3c-0.3-0.7-1-1.1-1.8-1.1
		c-1.2,0-2.3-0.6-2.9-1.6c-0.7-1.2-2-1.3-3.1-1.7c-1.3-0.3-2.5-1-3.3-2c-0.4-0.4-0.9-0.7-1.5-0.8c-2.2-0.4-4.3-1.2-6.1-2.4
		c-1.1-0.6-2.3-1.1-3.6-1.3c-2.1-0.5-4.1-1.2-6-2.3c-1.3-0.6-2.6-1-4-1.2c-2.1-0.4-4.2-1.2-6.1-2.2c-1.2-0.5-2.5-0.9-3.8-1.1
		c-2.4-0.4-4.7-1.2-6.8-2.4c-1.2-0.5-2.5-0.9-3.8-1.1c-2.3-0.5-4.7-1.2-6.9-2.1c-2.4-0.8-4.9-1.5-7.4-1.9c-0.9-0.2-1.7-0.4-2.5-0.8
		c-2.4-1-4.9-1.7-7.5-2.2c-2.2-0.5-4.3-1.2-6.4-1.8c-1.1-0.3-2.2-0.6-3.3-0.9c-4.4-1.1-8.9-2.2-13.3-3.3c-1.8-0.4-3.6-0.7-5.4-1
		c-1.4-0.3-2.9-0.6-4.3-1c-3-0.7-6-1.5-9.1-2.2c-3-0.7-6.1-1.3-9.1-2c-1.9-0.4-3.9-0.8-5.8-1.1c-4.2-0.8-8.5-1.6-12.8-2.2
		c-5.6-0.9-11.2-1.6-16.8-2.6c-13.2-2.4-26.6-3.4-39.9-5.1c-5.8-0.7-11.7-1-17.5-1.3c-9.6-0.6-19.3-1.2-28.9-1.6
		c-15-0.6-30-0.7-45,0c-13.5,0.6-27,1.3-40.6,2.2c-7.3,0.5-14.5,1.5-21.8,2.3c-5.4,0.6-10.9,1.3-16.2,2c-3.2,0.4-6.4,1-9.6,1.5
		c-3.6,0.6-7.2,1-10.7,1.6c-5.6,1-11.2,2-16.9,3.2c-1.9,0.4-3.7,0.9-5.5,1.4c-3.5,0.9-7.3,0.8-10.7-0.5c-0.4-0.1-0.7-0.3-1-0.4
		c-0.9-0.5-0.9-1.1,0-1.7c0.5-0.3,1-0.6,1.5-0.8c1.9-1,3.9-1.9,5.7-3c2.9-1.8,5.7-3.7,8.6-5.6c0.4-0.3,0.9-0.5,1.3-0.7l4.8-2.8
		c0.3-0.2,0.6-0.5,1-0.6c2.9-1.5,5.7-3,8.6-4.5c2.8-1.5,5.7-3.3,8.6-4.9c0.8-0.4,1.6-0.7,2.4-1c3.2-1.5,6.5-2.9,9.6-4.6
		c2.2-1.2,4.5-2.1,6.7-3.1c3.7-1.6,7.2-3.4,10.9-5.1c1.9-0.9,3.9-1.5,5.8-2.4c2.2-1.1,4.5-2,6.9-2.8c4.1-1.7,8-3.4,12.1-5.1
		c1.1-0.5,2.3-0.7,3.4-1.1c2-0.8,4.1-1.8,6.2-2.5c4.6-1.3,8.8-3.7,13.5-4.7c1-0.3,1.9-0.7,2.8-1.1c1.8-0.6,3.6-1.3,5.4-1.9
		c1.6-0.5,3.1-1.1,4.7-1.6c2-0.7,4.1-1.3,6.1-2c2.1-0.7,3.8-1.4,5.7-2c1.4-0.5,2.9-0.8,4.4-1.3c2.2-0.7,4.3-1.5,6.5-2.2
		c0.8-0.3,1.7-0.5,2.6-0.8l10.6-3.2c0.6-0.2,1.2-0.3,1.8-0.5c2.1-0.6,4.2-1.1,6.2-1.7c3.5-0.9,7-1.8,10.5-2.8c1.4-0.4,2.7-1,4.1-1.4
		c2-0.5,4-0.9,5.9-1.5c1.9-0.6,4.1-1.5,6.1-2.3c1.1-0.4,2.3-0.9,3.3-1.4c5.5-2.9,10.3-6.8,14.3-11.5c2.1-2.5,3.9-5.3,5.4-8.2
		c3.5-7.1,4.6-15.1,3.2-22.8c-0.4-2.6-1.3-5.2-1.9-7.8c-0.8-2.8-1.8-5.6-2.9-8.2c-1.2-2.9-2.8-5.5-4.1-8.3c0-0.1-0.1-0.2-0.2-0.3
		c-2.5-2.1-3-5.7-5.8-7.6c-0.4-0.3-0.7-0.7-0.9-1.2c-0.4-1-1.2-1.7-2.2-1.9c-0.8-0.2-1.5-0.9-1.7-1.7c-0.2-0.9-0.9-1.6-1.8-1.7
		c-0.5-0.1-1-0.4-1.4-0.9c-2.6-2.6-5.5-4.9-8.6-6.8C-2521.4,2893.2-2522.3,2892-2522.4,2890.6z"/>
	<path id="Path_2" class="st0" d="M-3027.3,2871.1c0.3-1.3,1.2-1.7,2.1-1.9c0.8-0.1,1.5-0.3,2.2-0.5c0.8-0.3,1.4-0.7,2-1.3
		c0.9-0.9,1.9-1.5,3-1.9c1.7-0.7,3.3-1.6,4.9-2.4l2.9-1.4c5-2.4,9.9-4.9,14.9-7.3c4.1-1.9,8.1-3.7,12.2-5.5c0.9-0.4,1.8-1,2.7-1.4
		c3-1.5,6.1-2.9,9.1-4.3c1.1-0.5,2.3-0.8,3.4-1.3c4.4-1.9,8.8-3.9,13.2-5.8c3.8-1.6,7.7-3,11.5-4.6c1.7-0.7,3.2-1.5,4.9-2
		c4.5-1.4,8.6-3.7,13.2-4.8c0.5-0.2,1-0.4,1.4-0.6l5.9-2.2c2.4-0.9,4.8-1.8,7.2-2.6c1.3-0.5,2.7-0.8,4-1.2c2-0.7,3.9-1.5,5.9-2.1
		c1.1-0.4,2.3-0.6,3.5-1c1.6-0.5,3.2-1.1,4.9-1.6s3.4-1,5.1-1.6c1.9-0.6,3.8-1.2,5.6-1.7c2.3-0.7,4.6-1.3,6.9-2c2-0.6,4-1.3,6-1.9
		c1.3-0.4,2.7-0.8,4.1-1.1c2.7-0.7,5.4-1.4,8.1-2.1c2.3-0.6,4.7-1.1,7-1.7c1.8-0.4,3.6-0.9,5.3-1.4c2.5-0.6,4.9-1.3,7.4-1.9
		c2.5-0.6,5.1-1.1,7.6-1.7l8-1.8c2.9-0.6,5.8-1.3,8.7-1.9c2.5-0.5,5-1,7.5-1.4c3-0.6,6.1-1.2,9.2-1.7c3.8-0.7,7.6-1.3,11.4-1.9
		s7.9-1.5,11.8-2.1c3-0.5,6.1-0.8,9.1-1.2c5.4-0.7,10.7-1.6,16.1-2.2c6.4-0.7,12.9-1.2,19.4-1.8c5.1-0.5,10.2-1.1,15.4-1.5
		c7.9-0.5,15.7-1.1,23.6-1.3c11.7-0.4,23.4-0.5,35.1-0.6c5.4-0.1,10.8,0.1,16.2,0.2c11.4,0.3,22.9,0.5,34.3,1
		c4.1,0.2,8.2,1,12.3,1.5c5.1,0.5,10.1,1,15.2,1.2c6.7,0.1,13.5,0.8,20,2.3c4.3,0.9,8.7,1.3,13.1,1.3c4.4,0.2,8.8,1,13.1,2.2
		c2,0.5,4.1,0.8,6.2,1c2.3,0.2,4.6,0.1,6.8,0.5c2.5,0.5,5,1.1,7.4,1.9c1.9,0.6,4,1,6,1c3.3-0.2,6.6,0.3,9.7,1.5c3,1.3,6.2,2,9.4,2
		c3,0,6,0.7,8.6,2.2c1.9,0.9,4,1.3,6.1,1.2c2.4,0,4.7,0.4,6.9,1.3c0.4,0.1,0.7,0.3,1,0.5c1.7,1.2,3.7,1.8,5.7,1.6
		c2.9-0.1,5.7,0.7,8.1,2.3c0.9,0.5,1.8,0.8,2.9,0.9c2.1,0.4,4.3,0.6,6.4,0.9c0.7,0.1,1.3,0.4,1.9,0.8c1.3,1.3,3,1.9,4.8,1.8
		c1,0.1,2,0.2,3,0.3c1.4,0.1,2.7,0.7,3.8,1.6c1.1,0.9,2.6,1.4,4.1,1.4c2.6-0.1,5.2,0.8,7.3,2.4c0.8,0.5,1.7,0.8,2.6,0.9
		c1,0.2,2.1,0.3,3.2,0.4c1.2,0.1,2.3,0.7,3.2,1.5c1.1,1,2.6,1.6,4.2,1.6c1.2,0.1,2.4,0.3,3.6,0.6c0.5,0.1,1,0.3,1.3,0.7
		c1.1,1.4,2.9,2.2,4.7,2.1c2,0.1,4,1,5.4,2.4c0.5,0.4,1.2,0.7,1.9,0.8c1.1,0.3,2.2,0.4,3.4,0.6c0.9,0.2,1.8,0.7,2.4,1.5
		c0.5,0.5,1,0.9,1.7,1.1c1,0.3,2.1,0.4,3.1,0.8c0.9,0.3,1.7,0.7,2.5,1.3c1.1,1.1,2.5,1.8,4.1,1.9c1.3,0.1,2.6,0.7,3.6,1.6
		c1.1,1,2.4,1.7,3.9,1.9c0.8,0.2,1.6,0.5,2.3,0.9c1.7,0.8,3.5,1.5,5.1,2.5c1.6,0.9,3.1,1.9,4.6,3c0.4,0.3,0.6,0.9,0.6,1.4
		c-0.1,0.4-0.9,0.6-1.4,0.7c-0.5,0.1-1,0-1.5-0.1c-9.7-2.2-19.5-3.8-29.3-4.9c-12.8-1.7-25.7-2.5-38.6-2.4c-6.5,0.1-12.9,0.7-19.3,2
		c-1.6,0.3-3.3,0.4-4.9,0.9c-1.6,0.5-3.1,1.1-4.6,1.7c-1,0.4-1.9,1-2.9,1.3c-1.6,0.3-2.9,1.3-3.8,2.6c-0.5,0.9-1.4,1.4-2.3,1.4
		c-1,0-1.5,0.4-1.5,1.5c0,1.6-0.8,3.1-2,4.2c-0.8,0.7-1.3,1.7-1.3,2.8c-0.6,4.1,0,8.3,1.8,12.1c0.5,1,0.7,2.2,1.2,3.2
		c1.8,3.7,3.9,7.3,6.3,10.6c2.1,3.1,4.5,6,7,8.8c2,2.1,4.1,4.1,6.2,6.1c1.5,1.5,2.8,3.3,3.6,5.2c-0.6-0.1-1.1-0.3-1.7-0.5
		c-2.1-0.8-4.1-1.7-6.1-2.8c-2.4-1.6-5.2-2.4-7.6-3.8c-2.1-1.2-4.4-2.3-6.7-3.1c-0.6-0.3-1.1-0.6-1.6-1c-1.3-0.7-2.7-1.3-4.1-2
		c-1.2-0.5-2.4-1.1-3.6-1.7c-1.3-0.9-2.8-1.5-4.3-1.8c-1.7-0.2-3.2-1-4.4-2.1c-0.5-0.4-1.2-0.7-1.8-0.9c-1.2-0.3-2.4-0.5-3.5-0.9
		c-0.6-0.1-1.1-0.4-1.5-0.7c-1.3-1.2-3-2-4.8-2.1c-1.7-0.4-3.2-1.1-4.7-2c-0.9-0.5-1.9-0.9-3-1.2c-2.1-0.4-4-1.2-5.8-2.3
		c-1.2-0.7-2.6-1.1-3.9-1.3c-1.4-0.3-2.7-0.8-3.9-1.5c-1.7-1-3.7-1.7-5.6-2.1c-1.3-0.4-2.6-0.9-3.9-1.5c-2.3-1-4.7-1.7-7.1-2.3
		c-0.9-0.3-1.7-0.8-2.6-1.2c-1.3-0.6-2.7-1.1-4.1-1.5c-2.2-0.4-4.4-1.2-6.4-2.3c-1.1-0.6-2.4-0.9-3.6-1.1c-2.4-0.4-4.8-1.2-7-2.4
		c-1.3-0.6-2.7-0.9-4.1-1.1c-2.2-0.5-4.3-1.2-6.3-2c-2.4-0.8-4.8-1.5-7.3-2c-0.9-0.2-1.8-0.5-2.7-0.9c-2.4-1-4.9-1.7-7.5-2.3
		c-2-0.5-4-1.2-6-1.8c-1.5-0.5-2.9-0.8-4.4-1.2c-3.1-0.6-6.2-1.4-9.2-2.5c-2.4-0.8-5-1.1-7.4-1.6c-1.4-0.3-2.7-0.6-4.1-1.1
		c-3.4-1.1-6.9-1.9-10.4-2.3c-0.9-0.1-1.9-0.3-2.8-0.6c-4.6-1.4-9.4-2.4-14.1-3c-2.6-0.5-5.1-1.3-7.6-1.8c-3-0.6-6-0.9-9-1.5
		c-3.9-0.7-7.7-1.6-11.6-2.2c-4.6-0.8-9.4-1.1-14-2c-12.2-2.3-24.6-3.2-36.9-4.5c-12.3-1.3-25-1.7-37.5-2.3
		c-19.6-0.8-39.3-0.4-58.9,0.7c-7.7,0.4-15.4,1.4-23.2,2.1c-6,0.6-12,1.2-18,2c-4.2,0.5-8.4,1.4-12.6,2c-3.8,0.6-7.7,1.1-11.5,1.8
		c-4.7,0.8-9.4,1.6-14.1,2.6c-2.3,0.5-4.5,1.3-6.8,1.8c-3.2,0.7-6.5,1.2-9.7,1.9c-1.2,0.3-2.4,0.9-3.6,1.2c-2.2,0.6-4.4,1.1-6.7,1.5
		c-2.2,0.4-4.3,1-6.4,1.8c-2.2,0.7-4.5,1.3-6.8,1.7c-1.8,0.5-3.5,1-5.3,1.6c-2,0.6-4.1,1.3-6.2,1.8c-1.9,0.4-3.8,1-5.6,1.9
		c-1.3,0.6-2.7,1.1-4.2,1.3c-2.3,0.3-4.6,1.1-6.6,2.2c-1.3,0.7-2.7,1.1-4.1,1.3c-2.1,0.3-4,1-5.9,2c-1.4,0.7-2.9,1.2-4.5,1.4
		c-1.9,0.4-3.6,1.1-5.3,2.1c-1.5,0.7-3,1.2-4.7,1.5c-1.2,0.2-2.3,0.7-3.4,1.2c-2,1.3-4.2,2.1-6.6,2.4c-1.2,0.1-2.3,0.7-3.2,1.6
		c-1.1,0.9-2.6,1.5-4.1,1.5c-1.1,0.2-2.3,0.3-3.4,0.4c-0.9-0.1-1.6,0.5-1.9,1.3c-0.3,0.9-1.1,1.5-2,1.4c-1.1,0-2.2,0-3.2,0
		s-1.9,0-2.9,0.1c-0.9-0.1-1.8,0.5-2,1.4c-0.3,1-1,1.2-1.9,1.2c-1.6,0-3.2,0-4.8,0c-0.9,0-1.6,0.2-1.9,1.2c-0.2,1-1.1,1.7-2.1,1.6
		C-3024.8,2871.8-3026.1,2871.7-3027.3,2871.1z"/>
	<path id="Path_3" class="st0" d="M-2543.3,2946.9c0.2,2.6-0.3,5.2-1.5,7.4c-0.4,0.9-0.7,1.9-0.8,2.9c-0.3,1.3-0.5,2.6-0.9,3.9
		c-0.2,0.6-0.6,1.1-1.1,1.4c-0.8,0.4-1.4,1.1-1.5,2c-0.1,1-0.9,1.9-1.9,2c-0.8,0.1-1.4,0.7-1.5,1.5c-0.2,1.2-1.3,2-2.5,1.8
		c-2.1,0-4.3,0-6.5-0.2c-0.7,0-1.3-0.3-1.8-0.8c-1.1-1.2-2.4-2-4-2.5c-1-0.3-1.9-1-2.6-1.8c-0.4-0.5-1-0.9-1.7-1
		c-1.9-0.3-3.6-1.2-4.9-2.6c-0.5-0.5-1.1-0.8-1.8-0.9c-1.9-0.2-3.7-1.1-5-2.5c-0.5-0.5-1.1-0.8-1.8-0.9c-2-0.2-3.9-1.1-5.4-2.6
		c-0.4-0.4-1-0.6-1.5-0.7c-1.1-0.3-2.2-0.5-3.3-0.8c-0.5-0.1-1-0.3-1.3-0.7c-1.2-1.3-2.9-2.1-4.7-2.3c-1.4-0.3-2.6-0.9-3.8-1.7
		c-1.2-0.7-2.5-1.2-3.9-1.5c-1.9-0.5-3.6-1.2-5.2-2.3c-0.6-0.4-1.3-0.7-2-0.9c-2.3-0.3-4.4-1.1-6.4-2.3c-1.1-0.6-2.3-1.1-3.6-1.3
		c-2.1-0.4-4.1-1.2-6-2.3c-1.2-0.6-2.5-1-3.8-1.1c-2.2-0.5-4.4-1.2-6.4-2.3c-1.3-0.6-2.8-1-4.2-1.1c-2.2-0.4-4.3-1.1-6.3-2.1
		c-1.2-0.6-2.5-0.9-3.8-1.1c-2.5-0.5-5.1-1.2-7.5-2c-2.7-0.9-5.5-1.4-8.3-2c-3.4-0.9-6.7-1.9-10.1-2.7c-5.9-1.3-11.8-2.5-17.7-3.8
		c-4-0.8-8-1.6-12-2.2c-5.2-0.8-10.4-1.5-15.7-2.2c-5.5-0.7-11.1-1.6-16.6-2c-21.6-2.1-43.3-2.6-65-1.5c-7.7,0.4-15.5,0.8-23.2,1.6
		c-8.2,0.8-16.4,2-24.6,3.1c-0.9,0.1-1.9,0.4-2.8,0.5c-4.1,0.7-8.1,1.4-12.2,2.2c-2.7,0.5-5.4,1.3-8.1,1.9c-3.4,0.7-6.8,1.4-10.3,2
		c-0.2,0-0.4,0.1-0.6,0.1c-3.8,1.4-7.8,2.4-11.8,3c-1.3,0.4-2.6,0.9-3.9,1.4c-1.5,0.5-3,0.9-4.6,1.2c-2.2,0.5-4.4,1.1-6.5,2
		c-2.3,0.8-4.6,1.5-6.9,2c-0.9,0.2-1.8,0.6-2.6,1c-2.3,1.2-4.7,2-7.2,2.4c-1.1,0.3-2.1,0.7-3.1,1.3c-1.5,0.8-3.1,1.4-4.8,1.7
		c-1.9,0.2-3.7,1-5.2,2.2c-0.6,0.5-1.3,0.8-2.1,0.8c-1.8,0.1-3.6,0-5.3-0.1c-1.7-0.4-3.6,0.1-4.9,1.3c-1.3,1-3,1.2-4.5,0.5
		c-0.4-0.1-0.7-0.4-0.7-0.9c0-0.3,0.2-0.5,0.4-0.6c0.6-0.4,1.3-0.7,2-0.9c0.9-0.2,1.8-0.6,2.5-1.3c0.8-0.7,1.7-1.4,2.6-1.9
		c4.1-2.4,8.3-4.6,12.4-7c3-1.7,5.8-3.5,8.8-5.3c1-0.6,2-1,3-1.5c3.6-1.9,7.2-4.1,10.9-5.9c3.7-1.8,7.3-3.5,11-5.2
		c1.9-0.9,3.8-1.8,5.7-2.6c4.4-2,8.8-4,13.2-5.8c4.1-1.7,8.3-3.2,12.4-4.8s8.2-3.3,12.4-4.8c1.2-0.5,2.6-0.7,3.8-1.1
		c2-0.7,3.9-1.4,5.9-2.1c1.4-0.5,2.8-0.8,4.2-1.2c2.1-0.7,4.2-1.4,6.3-2.1c1.5-0.5,3-0.8,4.6-1.2c2-0.6,4.1-1.2,6.2-1.8
		c1.7-0.5,3.4-0.9,5.1-1.4c2.9-0.8,5.9-1.6,8.8-2.3c3.4-0.8,6.8-1.4,10.2-2.2c1.7-0.4,3.3-0.9,5-1.3c1.7-0.4,3.6-0.8,5.4-1.1
		c3.7-0.7,7.4-1.4,11-2.1c3.2-0.6,6.5-1.1,9.8-1.6c4.2-0.7,8.4-1.5,12.6-2.1c3.9-0.5,7.8-0.9,11.7-1.3c6.5-0.7,13-1.5,19.5-2.1
		c5.6-0.5,11.2-0.8,16.7-1c22.3-0.9,44.6-0.6,66.9,0.1c5.6,0,11.2,0.5,16.7,1.4c4.1,0.8,8.3,1.2,12.5,1.6c2.7,0.3,5.5,0.3,8.2,0.3
		c4.1,0.2,8.2,0.9,12.2,2c2.8,0.7,5.6,1.1,8.4,1.5c1.1,0.1,2.2,0.1,3.2-0.1c1.9-0.5,3.9,0.2,5.1,1.7c0.5,0.7,1.3,1.1,2.1,1.2
		c1.1,0.2,2.1,0.7,2.8,1.5c1.4,1.3,2.9,2.4,4.3,3.7c3.8,3.6,7.3,7.5,10.6,11.5c3.7,4.4,7,9,10.1,13.8c2.1,3.4,4.2,6.8,6.1,10.3
		c1.2,2.2,2.2,4.4,3,6.7c0.3,0.8,0.9,1.5,1.2,2.4c0.6,1.5,1,3.1,1.5,4.7c0.6,2,1,4.2,1.7,6.2
		C-2543.7,2940.5-2543.3,2943.7-2543.3,2946.9z"/>
	<path id="Path_4" class="st0" d="M-2702.4,3034.9c0-0.2,0-0.4,0-0.5c0.6-1.6,1.2-3.2,2-4.7c1.2-2.8,1.6-5.8,1-8.8
		c-0.3-2.4-0.8-4.8-1.5-7.1c-0.3-1.1-1.2-2-1.6-3.2c-0.9-2.1-2.3-4-4-5.6c-0.7-0.9-1.3-1.7-2.6-1.7c-0.7,0.1-1.3-0.4-1.4-1
		c-0.1-0.9-1-1.6-1.9-1.5c0,0-0.1,0-0.1,0c-1.1,0.1-2.2-0.5-2.6-1.5c-0.4-0.5-1-0.9-1.6-1.2c-0.8-0.4-1.7-0.5-2.5-0.9
		c-0.6-0.2-1.1-0.5-1.5-1c-0.7-0.9-1.7-1.5-2.9-1.6c-1.9-0.2-3.7-0.9-5.3-2c-0.5-0.4-1.1-0.6-1.7-0.7c-3.3-0.9-6.6-1.9-9.9-2.7
		c-2.7-0.7-5.5-1.1-8.2-1.6c-3.9-0.7-7.8-1.6-11.8-2.1c-5.2-0.7-10.5-1.2-15.7-1.6c-12-0.8-24.1-0.5-36,1c-7.1,0.9-14.1,2-21.1,3.2
		c-2.3,0.4-4.5,1.2-6.8,1.7c-3.2,0.7-6.4,1.2-9.6,1.7c-0.5,0.1-1,0.2-1.5,0.4c-3.2,1.4-6.6,2-10.1,1.8c-1.7,0-3.3-0.1-5,0
		c-0.8,0-1.5,0.3-2.1,0.7c-1.1,1.1-2.7,1.6-4.2,1.3c-0.9,0-1.8-0.2-2.6-0.4c-0.3-0.1-0.8-0.5-0.8-0.8s0.4-0.7,0.8-0.9
		c0.5-0.2,1-0.3,1.5-0.4c1-0.2,2-0.3,3-0.5c0.4,0,0.9-0.2,1.2-0.4c2.7-2,5.7-3.3,8.9-4c3-1.2,5.9-2.3,8.9-3.3c1.3-0.5,2.7-0.8,4-1.3
		c2.1-0.8,4.3-1.6,6.4-2.4c1.4-0.5,2.9-0.8,4.4-1.3c1.9-0.6,3.7-1.3,5.6-1.9c1.1-0.4,2.2-0.7,3.3-1c3.3-1,6.7-2,10.1-2.9
		c1.3-0.4,2.6-0.5,3.9-0.9c3.4-0.9,6.7-1.8,10.1-2.7c1.3-0.3,2.7-0.5,4.1-0.8c3-0.6,6-1.3,9-1.9c3-0.6,6.2-1.1,9.4-1.7
		c3.1-0.5,6.1-1.1,9.2-1.5c4.1-0.6,8.3-1.3,12.5-1.7c7.7-0.8,15.3-1.6,23-2.1c6.8-0.5,13.6-0.9,20.4-0.9c9.1,0,18.2,0.1,27.3,0.5
		c4.5,0.2,9,1.1,13.4,1.5c4.8,0.5,9.6,0.8,14.4,1c4.3,0.2,8.5,1,12.5,2.3c1.8,0.5,3.6,0.8,5.4,0.9c3,0.4,6.2,0.6,9.3,1
		c0.8,0.2,1.6,0.5,2.3,0.9c1.5,0.5,3.1,1,4.7,1.4c1.3,0.2,2.5,0.2,3.8,0.3c2.2,0,4.3,0.6,6.2,1.6c2.1,1.2,4.5,1.8,6.9,1.8
		c1.1,0.1,2.1,0.2,3.2,0.4c1,0.1,1.9,0.7,2.6,1.4c1.1,1.3,2.7,1.2,4.2,1.4s2.8,0.3,4.1,0.6c0.7,0.1,1.3,0.5,1.8,1
		c1.2,1.2,2.7,1.9,4.4,1.9c1.2,0.2,2.4,0.4,3.5,0.7c0.5,0.1,1,0.3,1.3,0.7c0.8,0.9,2,1.4,3.2,1.4c2.7,0.2,5.1,1.6,6.5,3.8
		c0.6,1,0.5,1.5-0.5,1.9c-0.8,0.3-1.7,0.5-2.6,0.7c-5.6,0.6-11.2,1.9-16.5,3.7c-1.4,0.5-2.9,0.8-4.5,1c-2.2,0.3-4.3,1-6.4,1.8
		c-2,0.8-4.1,1.4-6.2,1.8c-1.6,0.3-3.2,0.8-4.7,1.6c-1.9,1-4,1.6-6.1,2c-1.1,0.4-2.2,0.8-3.3,1.3c-1.5,0.6-3,1.3-4.6,1.7
		c-1.9,0.4-3.7,1.1-5.4,2.3c-1.3,0.8-2.8,1.3-4.3,1.5c-1.1,0.2-2.2,0.7-3,1.4c-1.2,1.1-2.7,1.7-4.3,1.9c-1.5,0.2-2.9,0.9-4.1,1.9
		c-0.8,0.8-1.9,1.3-3,1.4c-1.7,0.2-3.3,1-4.5,2.3c-0.7,0.6-1.5,0.9-2.4,1.1c-1.7,0.3-3.3,1.1-4.4,2.4c-0.6,0.6-1.3,1-2.1,1.1
		c-1.5,0.3-2.9,1-3.9,2.1c-0.8,0.9-1.8,1.4-3,1.5c-1,0-1.9,0.5-2.5,1.3c-1,1.3-2.5,2.1-4.1,2.3c-1,0.1-1.8,0.6-2.3,1.5
		c-0.4,0.6-1,1.1-1.7,1.4c-0.7,0.4-1.5,0.7-2.3,0.9c-0.8,0.2-1.6,0.8-2,1.5c-1.1,1.7-3.4,2.3-5.2,1.3c-1.1-0.7-2.5-0.7-3.6-0.1
		C-2699.7,3035.6-2701.2,3035.6-2702.4,3034.9z"/>
</g>
</svg>
