<?xml version="1.0" encoding="utf-8"?>
<!-- Generator: Adobe Illustrator 24.1.1, SVG Export Plug-In . SVG Version: 6.00 Build 0)  -->
<svg version="1.1" id="Layer_1" xmlns="http://www.w3.org/2000/svg" xmlns:xlink="http://www.w3.org/1999/xlink" x="0px" y="0px"
	 viewBox="0 0 800 800" style="enable-background:new 0 0 800 800;" xml:space="preserve">
<style type="text/css">
	.st0{fill:#231F20;}
</style>
<g id="fpp-logo" transform="translate(-373.818 -583.897)">
	<path id="Path_21" class="st0" d="M856.7,848.6H726.4c-31.7,1.3-58.6,23.7-65.6,54.6l-28.5,141.9c-3.2,13.6-0.1,27.9,8.4,39
		c8.8,10.6,21.9,16.5,35.6,16.1h37.1l1.1-4.7c-22.3-6.4-35.5-29.5-29.5-51.9l3.3-16.4c0.9,0,1.8,0.1,2.7,0.1h130.3
		c31.7-1.3,58.6-23.7,65.6-54.6l13.9-69c3.2-13.6,0.1-27.9-8.4-39C883.6,854.1,870.4,848.2,856.7,848.6z M846.5,907.7l-11.9,59.3
		c-1,9-8.9,15.6-17.9,14.9H710.3c-3.2,0.1-6.3-1.3-8.4-3.7c-2-2.6-2.7-6-2-9.2l12.3-61.2c1.8-7.5,8.3-12.9,16-13.1h107.9
		c3.2-0.1,6.2,1.3,8.3,3.7C846.6,900.9,847.3,904.3,846.5,907.7L846.5,907.7z"/>
	<path id="Path_22" class="st0" d="M1148.6,864.7c-8.8-10.5-21.9-16.4-35.6-16H982.7c-31.7,1.3-58.6,23.7-65.6,54.6l-28.5,141.9
		c-3.2,13.6-0.1,27.9,8.4,39c8.8,10.6,21.9,16.5,35.6,16.1h37.1l1.1-4.7c-22.4-6.4-35.5-29.5-29.5-51.9l3.3-16.4
		c0.9,0,1.8,0.1,2.7,0.1h130.3c31.7-1.3,58.6-23.7,65.6-54.6l13.9-69C1160.3,890.1,1157.2,875.7,1148.6,864.7z M1102.8,907.6
		l-11.9,59.3c-1,9-8.9,15.6-18,14.9H966.6c-3.2,0.1-6.3-1.3-8.4-3.7c-2-2.6-2.7-6-1.9-9.2l12.3-61.2c1.8-7.5,8.3-12.9,16-13.1h107.9
		c3.2-0.1,6.2,1.3,8.3,3.7C1102.9,900.9,1103.6,904.3,1102.8,907.6z"/>
	<path id="Path_23" class="st0" d="M602.6,849.6H490.8c-31.7,1.3-58.6,23.7-65.7,54.6l-28.5,141.9c-3.2,13.6-0.1,27.9,8.4,39
		c8.8,10.6,21.9,16.5,35.6,16.1h37c1.2,0,2.3-0.9,2.6-2.1c0.3-1.1-0.3-2.3-1.4-2.6c-22.3-6.4-35.5-29.5-29.5-51.9l9.9-49.4H574
		c7.5-0.2,14.6,3,19.4,8.7c0.6,0.7,1.6,1,2.5,0.6c0.9-0.3,1.6-1.1,1.8-2.1c2.5-13.3-0.9-27-9.4-37.5c-8.8-10.1-21.6-15.7-35-15.3
		h-84.9l8.3-41.1c1.7-7.6,8.3-13.1,16.1-13.4h96.7c23.8-1.1,44,17.2,45.2,41.1c0.1,1.4,0.1,2.9,0,4.3c-0.1,1.1,0.8,2.1,2,2.2
		c0,0,0.1,0,0.1,0l0,0c1.3,0,2.3-0.9,2.6-2.2l7.2-35.9c3.2-13.6,0.1-27.9-8.4-39C629.4,855.1,616.3,849.2,602.6,849.6z"/>
</g>
</svg>
