<?xml version="1.0" encoding="utf-8"?>
<!-- Generator: Adobe Illustrator 24.1.1, SVG Export Plug-In . SVG Version: 6.00 Build 0)  -->
<svg version="1.1" id="Layer_1" xmlns="http://www.w3.org/2000/svg" xmlns:xlink="http://www.w3.org/1999/xlink" x="0px" y="0px"
	 viewBox="0 0 800 800" style="enable-background:new 0 0 800 800;" xml:space="preserve">
<style type="text/css">
	.st0{fill:#231F20;}
</style>
<g id="help-icon" transform="translate(-578.5 -379)">
	<path id="Path_40" class="st0" d="M951.8,825.4h47.9l5.1-28.6c51.1-10.3,92.4-34.7,92.4-94.2v-0.9c0-62.3-45.9-97-113.5-97
		c-43.9-1-85.9,17.6-114.8,50.6l43.1,47.4c17.9-20.1,43.4-31.9,70.3-32.4c27.2,0,43.1,12.2,43.1,33.3v0.9c0,24.8-23.1,40.3-82,42.7
		l-2.3,2.3L951.8,825.4z M936.3,937h76v-75h-76V937z"/>
</g>
<path class="st0" d="M404.5,755.3c-200.5,0-363.6-163-363.6-363.5S204,28.3,404.5,28.3S768,191.4,768,391.8S604.9,755.3,404.5,755.3
	z M404.5,134.7c-141.8,0-257.1,115.4-257.1,257.1s115.4,257.1,257.1,257.1s257.1-115.4,257.1-257.1S546.2,134.7,404.5,134.7z"/>
</svg>
