<?xml version="1.0" encoding="utf-8"?>
<!-- Generator: Adobe Illustrator 24.1.1, SVG Export Plug-In . SVG Version: 6.00 Build 0)  -->
<svg version="1.1" id="Layer_1" xmlns="http://www.w3.org/2000/svg" xmlns:xlink="http://www.w3.org/1999/xlink" x="0px" y="0px"
	 viewBox="0 0 800 800" style="enable-background:new 0 0 800 800;" xml:space="preserve">
<style type="text/css">
	.st0{fill:#010101;}
</style>
<g id="icon-plus-white" transform="translate(-5 -5)">
	<g id="Group_97" transform="translate(5 5)">
		<path id="Path_37" class="st0" d="M715.7,459.3H454.4v261.3c-0.1,28.8-23.4,52.2-52.3,52.3l0,0c-28.8-0.1-52.2-23.4-52.3-52.3
			V459.3H88.5c-28.8-0.1-52.2-23.4-52.3-52.3l0,0c0.1-28.8,23.4-52.2,52.3-52.3h261.3V93.4c0.1-28.8,23.5-52.2,52.3-52.3l0,0
			c28.8,0.1,52.2,23.4,52.3,52.3v261.3h261.3c28.9,0.1,52.2,23.4,52.3,52.3l0,0C767.9,435.8,744.6,459.2,715.7,459.3z"/>
	</g>
</g>
</svg>
