<?xml version="1.0" encoding="utf-8"?>
<!-- Generator: Adobe Illustrator 24.1.1, SVG Export Plug-In . SVG Version: 6.00 Build 0)  -->
<svg version="1.1" id="Layer_1" xmlns="http://www.w3.org/2000/svg" xmlns:xlink="http://www.w3.org/1999/xlink" x="0px" y="0px"
	 viewBox="0 0 800 800" style="enable-background:new 0 0 800 800;" xml:space="preserve">
<style type="text/css">
	.st0{fill:#231F20;}
</style>
<g id="Group_100">
	<path id="Path_41" class="st0" d="M734.8,676.9L512.7,454.9c84.8-115,60.3-277-54.7-361.7c-29.7-21.9-63.8-37.2-99.9-44.9
		c-140-31-278.6,57.4-309.6,197.4C19.2,378.3,97.1,511.1,227.1,550.3c78.3,24.3,163.5,9.8,229.3-39.1l222.1,222.1
		c15.6,15.5,40.7,15.5,56.3,0l0,0c16.1-15.1,17.7-39.5,2.6-55.5C736.8,677.1,736.3,676.6,734.8,676.9z M124.1,302.3
		c0-99.3,80.5-179.7,179.7-179.7S483.6,203,483.6,302.3S403.1,482,303.8,482c-99.1,0.1-179.6-80.1-179.7-179.3
		C124.1,302.6,124.1,302.4,124.1,302.3z"/>
</g>
</svg>
