<?xml version="1.0" encoding="utf-8"?>
<!-- Generator: Adobe Illustrator 24.1.1, SVG Export Plug-In . SVG Version: 6.00 Build 0)  -->
<svg version="1.1" id="Layer_1" xmlns="http://www.w3.org/2000/svg" xmlns:xlink="http://www.w3.org/1999/xlink" x="0px" y="0px"
	 viewBox="0 0 800 800" style="enable-background:new 0 0 800 800;" xml:space="preserve">
<style type="text/css">
	.st0{fill:#231F20;}
</style>
<g>
	<path class="st0" d="M157.6,694.7c0,45.6,37.3,83,83,83h331.8c45.6,0,83-37.3,83-83V196.9H157.6V694.7z M526.7,346.2
		c0-12.4,12.4-24.9,24.9-24.9s24.9,12.4,24.9,24.9v269.6c0,12.4-12.4,24.9-24.9,24.9s-24.9-12.4-24.9-24.9V346.2z M385.7,346.2
		c0-12.4,12.4-24.9,24.9-24.9s24.9,12.4,24.9,24.9v269.6c0,12.4-12.4,24.9-24.9,24.9c-12.4,0-24.9-12.4-24.9-24.9V346.2z M253,346.2
		c0-12.4,12.4-24.9,24.9-24.9s24.9,12.4,24.9,24.9v269.6c0,12.4-12.4,24.9-24.9,24.9S253,628.3,253,615.9
		C253,615.9,253,346.2,253,346.2z"/>
	<polygon class="st0" points="551.6,60 510.2,18.5 302.8,18.5 261.3,60 116.1,60 116.1,143 696.8,143 696.8,60 	"/>
</g>
</svg>
